<svg version="1.1" xmlns="http://www.w3.org/2000/svg" xmlns:xlink="http://www.w3.org/1999/xlink" width="846" height="350"><defs/><g><text fill="#eeeeee" stroke="none" font-family="Arial" font-size="24px" font-style="normal" font-weight="normal" text-decoration="none" x="0" y="0">UNREGISTERED</text><text fill="#eeeeee" stroke="none" font-family="Arial" font-size="24px" font-style="normal" font-weight="normal" text-decoration="none" x="0" y="30">UNREGISTERED</text><text fill="#eeeeee" stroke="none" font-family="Arial" font-size="24px" font-style="normal" font-weight="normal" text-decoration="none" x="0" y="60">UNREGISTERED</text><text fill="#eeeeee" stroke="none" font-family="Arial" font-size="24px" font-style="normal" font-weight="normal" text-decoration="none" x="0" y="90">UNREGISTERED</text><text fill="#eeeeee" stroke="none" font-family="Arial" font-size="24px" font-style="normal" font-weight="normal" text-decoration="none" x="0" y="120">UNREGISTERED</text><text fill="#eeeeee" stroke="none" font-family="Arial" font-size="24px" font-style="normal" font-weight="normal" text-decoration="none" x="0" y="150">UNREGISTERED</text><text fill="#eeeeee" stroke="none" font-family="Arial" font-size="24px" font-style="normal" font-weight="normal" text-decoration="none" x="0" y="180">UNREGISTERED</text><text fill="#eeeeee" stroke="none" font-family="Arial" font-size="24px" font-style="normal" font-weight="normal" text-decoration="none" x="0" y="210">UNREGISTERED</text><text fill="#eeeeee" stroke="none" font-family="Arial" font-size="24px" font-style="normal" font-weight="normal" text-decoration="none" x="0" y="240">UNREGISTERED</text><text fill="#eeeeee" stroke="none" font-family="Arial" font-size="24px" font-style="normal" font-weight="normal" text-decoration="none" x="0" y="270">UNREGISTERED</text><text fill="#eeeeee" stroke="none" font-family="Arial" font-size="24px" font-style="normal" font-weight="normal" text-decoration="none" x="0" y="300">UNREGISTERED</text><text fill="#eeeeee" stroke="none" font-family="Arial" font-size="24px" font-style="normal" font-weight="normal" text-decoration="none" x="0" y="330">UNREGISTERED</text><text fill="#eeeeee" stroke="none" font-family="Arial" font-size="24px" font-style="normal" font-weight="normal" text-decoration="none" x="200" y="0">UNREGISTERED</text><text fill="#eeeeee" stroke="none" font-family="Arial" font-size="24px" font-style="normal" font-weight="normal" text-decoration="none" x="200" y="30">UNREGISTERED</text><text fill="#eeeeee" stroke="none" font-family="Arial" font-size="24px" font-style="normal" font-weight="normal" text-decoration="none" x="200" y="60">UNREGISTERED</text><text fill="#eeeeee" stroke="none" font-family="Arial" font-size="24px" font-style="normal" font-weight="normal" text-decoration="none" x="200" y="90">UNREGISTERED</text><text fill="#eeeeee" stroke="none" font-family="Arial" font-size="24px" font-style="normal" font-weight="normal" text-decoration="none" x="200" y="120">UNREGISTERED</text><text fill="#eeeeee" stroke="none" font-family="Arial" font-size="24px" font-style="normal" font-weight="normal" text-decoration="none" x="200" y="150">UNREGISTERED</text><text fill="#eeeeee" stroke="none" font-family="Arial" font-size="24px" font-style="normal" font-weight="normal" text-decoration="none" x="200" y="180">UNREGISTERED</text><text fill="#eeeeee" stroke="none" font-family="Arial" font-size="24px" font-style="normal" font-weight="normal" text-decoration="none" x="200" y="210">UNREGISTERED</text><text fill="#eeeeee" stroke="none" font-family="Arial" font-size="24px" font-style="normal" font-weight="normal" text-decoration="none" x="200" y="240">UNREGISTERED</text><text fill="#eeeeee" stroke="none" font-family="Arial" font-size="24px" font-style="normal" font-weight="normal" text-decoration="none" x="200" y="270">UNREGISTERED</text><text fill="#eeeeee" stroke="none" font-family="Arial" font-size="24px" font-style="normal" font-weight="normal" text-decoration="none" x="200" y="300">UNREGISTERED</text><text fill="#eeeeee" stroke="none" font-family="Arial" font-size="24px" font-style="normal" font-weight="normal" text-decoration="none" x="200" y="330">UNREGISTERED</text><text fill="#eeeeee" stroke="none" font-family="Arial" font-size="24px" font-style="normal" font-weight="normal" text-decoration="none" x="400" y="0">UNREGISTERED</text><text fill="#eeeeee" stroke="none" font-family="Arial" font-size="24px" font-style="normal" font-weight="normal" text-decoration="none" x="400" y="30">UNREGISTERED</text><text fill="#eeeeee" stroke="none" font-family="Arial" font-size="24px" font-style="normal" font-weight="normal" text-decoration="none" x="400" y="60">UNREGISTERED</text><text fill="#eeeeee" stroke="none" font-family="Arial" font-size="24px" font-style="normal" font-weight="normal" text-decoration="none" x="400" y="90">UNREGISTERED</text><text fill="#eeeeee" stroke="none" font-family="Arial" font-size="24px" font-style="normal" font-weight="normal" text-decoration="none" x="400" y="120">UNREGISTERED</text><text fill="#eeeeee" stroke="none" font-family="Arial" font-size="24px" font-style="normal" font-weight="normal" text-decoration="none" x="400" y="150">UNREGISTERED</text><text fill="#eeeeee" stroke="none" font-family="Arial" font-size="24px" font-style="normal" font-weight="normal" text-decoration="none" x="400" y="180">UNREGISTERED</text><text fill="#eeeeee" stroke="none" font-family="Arial" font-size="24px" font-style="normal" font-weight="normal" text-decoration="none" x="400" y="210">UNREGISTERED</text><text fill="#eeeeee" stroke="none" font-family="Arial" font-size="24px" font-style="normal" font-weight="normal" text-decoration="none" x="400" y="240">UNREGISTERED</text><text fill="#eeeeee" stroke="none" font-family="Arial" font-size="24px" font-style="normal" font-weight="normal" text-decoration="none" x="400" y="270">UNREGISTERED</text><text fill="#eeeeee" stroke="none" font-family="Arial" font-size="24px" font-style="normal" font-weight="normal" text-decoration="none" x="400" y="300">UNREGISTERED</text><text fill="#eeeeee" stroke="none" font-family="Arial" font-size="24px" font-style="normal" font-weight="normal" text-decoration="none" x="400" y="330">UNREGISTERED</text><text fill="#eeeeee" stroke="none" font-family="Arial" font-size="24px" font-style="normal" font-weight="normal" text-decoration="none" x="600" y="0">UNREGISTERED</text><text fill="#eeeeee" stroke="none" font-family="Arial" font-size="24px" font-style="normal" font-weight="normal" text-decoration="none" x="600" y="30">UNREGISTERED</text><text fill="#eeeeee" stroke="none" font-family="Arial" font-size="24px" font-style="normal" font-weight="normal" text-decoration="none" x="600" y="60">UNREGISTERED</text><text fill="#eeeeee" stroke="none" font-family="Arial" font-size="24px" font-style="normal" font-weight="normal" text-decoration="none" x="600" y="90">UNREGISTERED</text><text fill="#eeeeee" stroke="none" font-family="Arial" font-size="24px" font-style="normal" font-weight="normal" text-decoration="none" x="600" y="120">UNREGISTERED</text><text fill="#eeeeee" stroke="none" font-family="Arial" font-size="24px" font-style="normal" font-weight="normal" text-decoration="none" x="600" y="150">UNREGISTERED</text><text fill="#eeeeee" stroke="none" font-family="Arial" font-size="24px" font-style="normal" font-weight="normal" text-decoration="none" x="600" y="180">UNREGISTERED</text><text fill="#eeeeee" stroke="none" font-family="Arial" font-size="24px" font-style="normal" font-weight="normal" text-decoration="none" x="600" y="210">UNREGISTERED</text><text fill="#eeeeee" stroke="none" font-family="Arial" font-size="24px" font-style="normal" font-weight="normal" text-decoration="none" x="600" y="240">UNREGISTERED</text><text fill="#eeeeee" stroke="none" font-family="Arial" font-size="24px" font-style="normal" font-weight="normal" text-decoration="none" x="600" y="270">UNREGISTERED</text><text fill="#eeeeee" stroke="none" font-family="Arial" font-size="24px" font-style="normal" font-weight="normal" text-decoration="none" x="600" y="300">UNREGISTERED</text><text fill="#eeeeee" stroke="none" font-family="Arial" font-size="24px" font-style="normal" font-weight="normal" text-decoration="none" x="600" y="330">UNREGISTERED</text><text fill="#eeeeee" stroke="none" font-family="Arial" font-size="24px" font-style="normal" font-weight="normal" text-decoration="none" x="800" y="0">UNREGISTERED</text><text fill="#eeeeee" stroke="none" font-family="Arial" font-size="24px" font-style="normal" font-weight="normal" text-decoration="none" x="800" y="30">UNREGISTERED</text><text fill="#eeeeee" stroke="none" font-family="Arial" font-size="24px" font-style="normal" font-weight="normal" text-decoration="none" x="800" y="60">UNREGISTERED</text><text fill="#eeeeee" stroke="none" font-family="Arial" font-size="24px" font-style="normal" font-weight="normal" text-decoration="none" x="800" y="90">UNREGISTERED</text><text fill="#eeeeee" stroke="none" font-family="Arial" font-size="24px" font-style="normal" font-weight="normal" text-decoration="none" x="800" y="120">UNREGISTERED</text><text fill="#eeeeee" stroke="none" font-family="Arial" font-size="24px" font-style="normal" font-weight="normal" text-decoration="none" x="800" y="150">UNREGISTERED</text><text fill="#eeeeee" stroke="none" font-family="Arial" font-size="24px" font-style="normal" font-weight="normal" text-decoration="none" x="800" y="180">UNREGISTERED</text><text fill="#eeeeee" stroke="none" font-family="Arial" font-size="24px" font-style="normal" font-weight="normal" text-decoration="none" x="800" y="210">UNREGISTERED</text><text fill="#eeeeee" stroke="none" font-family="Arial" font-size="24px" font-style="normal" font-weight="normal" text-decoration="none" x="800" y="240">UNREGISTERED</text><text fill="#eeeeee" stroke="none" font-family="Arial" font-size="24px" font-style="normal" font-weight="normal" text-decoration="none" x="800" y="270">UNREGISTERED</text><text fill="#eeeeee" stroke="none" font-family="Arial" font-size="24px" font-style="normal" font-weight="normal" text-decoration="none" x="800" y="300">UNREGISTERED</text><text fill="#eeeeee" stroke="none" font-family="Arial" font-size="24px" font-style="normal" font-weight="normal" text-decoration="none" x="800" y="330">UNREGISTERED</text><g transform="translate(-262,-190) scale(1,1)"><path fill="#ffffff" stroke="none" d="M 306.0166731178977 307.89 C 306.0166731178977 301.875618528 310.83799600255225 297 316.785400390625 297 C 322.73280477869775 297 327.5541276633523 301.875618528 327.5541276633523 307.89 C 327.5541276633523 313.90438147199995 322.73280477869775 318.78 316.785400390625 318.78 C 310.83799600255225 318.78 306.0166731178977 313.90438147199995 306.0166731178977 307.89 Z"/></g><g transform="translate(-262,-190) scale(1,1)"><path fill="none" stroke="#000000" d="M 306.0166731178977 307.89 C 306.0166731178977 301.875618528 310.83799600255225 297 316.785400390625 297 C 322.73280477869775 297 327.5541276633523 301.875618528 327.5541276633523 307.89 C 327.5541276633523 313.90438147199995 322.73280477869775 318.78 316.785400390625 318.78 C 310.83799600255225 318.78 306.0166731178977 313.90438147199995 306.0166731178977 307.89 Z" stroke-miterlimit="10"/></g><g transform="translate(-262,-190) scale(1,1)"><path fill="none" stroke="#000000" d="M 316.785400390625 318.78 L 316.785400390625 340.22" stroke-miterlimit="10"/></g><g transform="translate(-262,-190) scale(1,1)"><path fill="none" stroke="#000000" d="M 305.3832185724432 326.82 L 328.1875822088068 326.82" stroke-miterlimit="10"/></g><g transform="translate(-262,-190) scale(1,1)"><path fill="none" stroke="#000000" d="M 316.785400390625 340.22 L 300.94903675426133 362" stroke-miterlimit="10"/></g><g transform="translate(-262,-190) scale(1,1)"><path fill="none" stroke="#000000" d="M 316.785400390625 340.22 L 332.62176402698867 362" stroke-miterlimit="10"/></g><g transform="translate(-262,-190) scale(1,1)"><path fill="none" stroke="#000000" d="M 272 388 L 361.57080078125 388" stroke-miterlimit="10"/></g><g transform="translate(-262,-190) scale(1,1)"><g><path fill="none" stroke="none"/><text fill="#000000" stroke="none" font-family="Arial" font-size="13px" font-style="normal" font-weight="bold" text-decoration="none" x="295.10498046875" y="382.5">Pacient</text></g></g><g transform="translate(-262,-190) scale(1,1)"><path fill="#C0C0C0" stroke="none" d="M 495 224 C 495 214.6111584 559.6948464 207 639.5 207 C 719.3051536 207 784 214.6111584 784 224 C 784 233.3888416 719.3051536 241 639.5 241 C 559.6948464 241 495 233.3888416 495 224 Z" opacity="0.2"/></g><g transform="translate(-262,-190) scale(1,1)"><path fill="#ffffff" stroke="none" d="M 488 217 C 488 207.6111584 552.6948464 200 632.5 200 C 712.3051536 200 777 207.6111584 777 217 C 777 226.3888416 712.3051536 234 632.5 234 C 552.6948464 234 488 226.3888416 488 217 Z"/></g><g transform="translate(-262,-190) scale(1,1)"><path fill="none" stroke="#000000" d="M 488 217 C 488 207.6111584 552.6948464 200 632.5 200 C 712.3051536 200 777 207.6111584 777 217 C 777 226.3888416 712.3051536 234 632.5 234 C 552.6948464 234 488 226.3888416 488 217 Z" stroke-miterlimit="10"/></g><g transform="translate(-262,-190) scale(1,1)"><g><path fill="none" stroke="none"/><text fill="#000000" stroke="none" font-family="Arial" font-size="13px" font-style="normal" font-weight="bold" text-decoration="none" x="542.544189453125" y="224">Activare și Autentificare cu 2FA</text></g></g><g transform="translate(-262,-190) scale(1,1)"><path fill="none" stroke="#000000" d="M 363 328 L 588 235" stroke-miterlimit="10"/></g><g transform="translate(-262,-190) scale(1,1)"><path fill="#C0C0C0" stroke="none" d="M 511 288 C 511 278.6111584 603.900904 271 718.5 271 C 833.099096 271 926 278.6111584 926 288 C 926 297.3888416 833.099096 305 718.5 305 C 603.900904 305 511 297.3888416 511 288 Z" opacity="0.2"/></g><g transform="translate(-262,-190) scale(1,1)"><path fill="#ffffff" stroke="none" d="M 504 281 C 504 271.6111584 596.900904 264 711.5 264 C 826.099096 264 919 271.6111584 919 281 C 919 290.3888416 826.099096 298 711.5 298 C 596.900904 298 504 290.3888416 504 281 Z"/></g><g transform="translate(-262,-190) scale(1,1)"><path fill="none" stroke="#000000" d="M 504 281 C 504 271.6111584 596.900904 264 711.5 264 C 826.099096 264 919 271.6111584 919 281 C 919 290.3888416 826.099096 298 711.5 298 C 596.900904 298 504 290.3888416 504 281 Z" stroke-miterlimit="10"/></g><g transform="translate(-262,-190) scale(1,1)"><g><path fill="none" stroke="none"/><text fill="#000000" stroke="none" font-family="Arial" font-size="13px" font-style="normal" font-weight="bold" text-decoration="none" x="579.751220703125" y="288">Vizualizare și Editare a informațiilor personale</text></g></g><g transform="translate(-262,-190) scale(1,1)"><path fill="none" stroke="#000000" d="M 363 339 L 603 299" stroke-miterlimit="10"/></g><g transform="translate(-262,-190) scale(1,1)"><path fill="#C0C0C0" stroke="none" d="M 631 464 C 631 454.6111584 687.1882576 447 756.5 447 C 825.8117424 447 882 454.6111584 882 464 C 882 473.3888416 825.8117424 481 756.5 481 C 687.1882576 481 631 473.3888416 631 464 Z" opacity="0.2"/></g><g transform="translate(-262,-190) scale(1,1)"><path fill="#ffffff" stroke="none" d="M 624 457 C 624 447.6111584 680.1882576 440 749.5 440 C 818.8117424 440 875 447.6111584 875 457 C 875 466.3888416 818.8117424 474 749.5 474 C 680.1882576 474 624 466.3888416 624 457 Z"/></g><g transform="translate(-262,-190) scale(1,1)"><path fill="none" stroke="#000000" d="M 624 457 C 624 447.6111584 680.1882576 440 749.5 440 C 818.8117424 440 875 447.6111584 875 457 C 875 466.3888416 818.8117424 474 749.5 474 C 680.1882576 474 624 466.3888416 624 457 Z" stroke-miterlimit="10"/></g><g transform="translate(-262,-190) scale(1,1)"><g><path fill="none" stroke="none"/><text fill="#000000" stroke="none" font-family="Arial" font-size="13px" font-style="normal" font-weight="bold" text-decoration="none" x="671.82373046875" y="464">Solicitarea unei programări</text></g></g><g transform="translate(-262,-190) scale(1,1)"><path fill="none" stroke="#000000" d="M 363 359 L 678 439" stroke-miterlimit="10"/></g><g transform="translate(-262,-190) scale(1,1)"><path fill="#C0C0C0" stroke="none" d="M 575 520 C 575 510.6111584 616.1897984 503 667 503 C 717.8102016 503 759 510.6111584 759 520 C 759 529.3888416 717.8102016 537 667 537 C 616.1897984 537 575 529.3888416 575 520 Z" opacity="0.2"/></g><g transform="translate(-262,-190) scale(1,1)"><path fill="#ffffff" stroke="none" d="M 568 513 C 568 503.6111584 609.1897984 496 660 496 C 710.8102016 496 752 503.6111584 752 513 C 752 522.3888416 710.8102016 530 660 530 C 609.1897984 530 568 522.3888416 568 513 Z"/></g><g transform="translate(-262,-190) scale(1,1)"><path fill="none" stroke="#000000" d="M 568 513 C 568 503.6111584 609.1897984 496 660 496 C 710.8102016 496 752 503.6111584 752 513 C 752 522.3888416 710.8102016 530 660 530 C 609.1897984 530 568 522.3888416 568 513 Z" stroke-miterlimit="10"/></g><g transform="translate(-262,-190) scale(1,1)"><g><path fill="none" stroke="none"/><text fill="#000000" stroke="none" font-family="Arial" font-size="13px" font-style="normal" font-weight="bold" text-decoration="none" x="603.655029296875" y="520">Primire de email-uri</text></g></g><g transform="translate(-262,-190) scale(1,1)"><path fill="none" stroke="#000000" d="M 363 369 L 623 495" stroke-miterlimit="10"/></g><g transform="translate(-262,-190) scale(1,1)"><path fill="#C0C0C0" stroke="none" d="M 615 408 C 615 398.6111584 724.690224 391 860 391 C 995.309776 391 1105 398.6111584 1105 408 C 1105 417.3888416 995.309776 425 860 425 C 724.690224 425 615 417.3888416 615 408 Z" opacity="0.2"/></g><g transform="translate(-262,-190) scale(1,1)"><path fill="#ffffff" stroke="none" d="M 608 401 C 608 391.6111584 717.690224 384 853 384 C 988.309776 384 1098 391.6111584 1098 401 C 1098 410.3888416 988.309776 418 853 418 C 717.690224 418 608 410.3888416 608 401 Z"/></g><g transform="translate(-262,-190) scale(1,1)"><path fill="none" stroke="#000000" d="M 608 401 C 608 391.6111584 717.690224 384 853 384 C 988.309776 384 1098 391.6111584 1098 401 C 1098 410.3888416 988.309776 418 853 418 C 717.690224 418 608 410.3888416 608 401 Z" stroke-miterlimit="10"/></g><g transform="translate(-262,-190) scale(1,1)"><g><path fill="none" stroke="none"/><text fill="#000000" stroke="none" font-family="Arial" font-size="13px" font-style="normal" font-weight="bold" text-decoration="none" x="695.473388671875" y="408">Obținerea de indicații către cea mai apropiată farmacie</text></g></g><g transform="translate(-262,-190) scale(1,1)"><path fill="none" stroke="#000000" d="M 363 352 L 674 383" stroke-miterlimit="10"/></g><g transform="translate(-262,-190) scale(1,1)"><path fill="#C0C0C0" stroke="none" d="M 687 352 C 687 342.6111584 757.7390015999999 335 845 335 C 932.2609984000001 335 1003 342.6111584 1003 352 C 1003 361.3888416 932.2609984000001 369 845 369 C 757.7390015999999 369 687 361.3888416 687 352 Z" opacity="0.2"/></g><g transform="translate(-262,-190) scale(1,1)"><path fill="#ffffff" stroke="none" d="M 680 345 C 680 335.6111584 750.7390015999999 328 838 328 C 925.2609984000001 328 996 335.6111584 996 345 C 996 354.3888416 925.2609984000001 362 838 362 C 750.7390015999999 362 680 354.3888416 680 345 Z"/></g><g transform="translate(-262,-190) scale(1,1)"><path fill="none" stroke="#000000" d="M 680 345 C 680 335.6111584 750.7390015999999 328 838 328 C 925.2609984000001 328 996 335.6111584 996 345 C 996 354.3888416 925.2609984000001 362 838 362 C 750.7390015999999 362 680 354.3888416 680 345 Z" stroke-miterlimit="10"/></g><g transform="translate(-262,-190) scale(1,1)"><g><path fill="none" stroke="none"/><text fill="#000000" stroke="none" font-family="Arial" font-size="13px" font-style="normal" font-weight="bold" text-decoration="none" x="738.39892578125" y="352">Vizualizarea de statistici personale</text></g></g><g transform="translate(-262,-190) scale(1,1)"><path fill="none" stroke="#000000" d="M 363 347 L 679 346" stroke-miterlimit="10"/></g></g></svg>